# xmcd
#
# Track frame offsets:
#  182
#  18037
#  31470
#  47630
#  62172
#  76295
#  91580
#  108175
#  124340
#  137495
#
# Disc length: 2026 seconds
#
# Revision: 0
# Processed by: cddbd v1.5.1PL0 Copyright (c) Steve Scherf et al.
# Submitted via: Collectorz.com Music Collector 6.9
#
DISCID=7207e80a
DTITLE=P. J. Jackson - P. J. Jackson
DYEAR=1992
DGENRE=Country
TTITLE0=Walkin' In A Hard Rain
TTITLE1=Here Comes Monday Morning
TTITLE2=10,000 Tears Ago
TTITLE3=Hand In Hand
TTITLE4=Weren't We A Pair
TTITLE5=Step Back
TTITLE6=Back Breakin' Son Of A Gun
TTITLE7=Wedding Band
TTITLE8=Walkin' Tall
TTITLE9=Rosalinda
EXTD=
EXTT0=
EXTT1=
EXTT2=
EXTT3=
EXTT4=
EXTT5=
EXTT6=
EXTT7=
EXTT8=
EXTT9=
PLAYORDER=
